<?xml version="1.0" encoding="utf-8" standalone="no"?>
<!DOCTYPE svg PUBLIC "-//W3C//DTD SVG 1.1//EN"
  "http://www.w3.org/Graphics/SVG/1.1/DTD/svg11.dtd">
<svg xmlns:xlink="http://www.w3.org/1999/xlink" width="288pt" height="216pt" viewBox="0 0 288 216" xmlns="http://www.w3.org/2000/svg" version="1.1">
 <metadata>
  <rdf:RDF xmlns:dc="http://purl.org/dc/elements/1.1/" xmlns:cc="http://creativecommons.org/ns#" xmlns:rdf="http://www.w3.org/1999/02/22-rdf-syntax-ns#">
   <cc:Work>
    <dc:type rdf:resource="http://purl.org/dc/dcmitype/StillImage"/>
    <dc:date>2025-07-21T16:33:10.227646</dc:date>
    <dc:format>image/svg+xml</dc:format>
    <dc:creator>
     <cc:Agent>
      <dc:title>Matplotlib v3.10.3, https://matplotlib.org/</dc:title>
     </cc:Agent>
    </dc:creator>
   </cc:Work>
  </rdf:RDF>
 </metadata>
 <defs>
  <style type="text/css">*{stroke-linejoin: round; stroke-linecap: butt}</style>
 </defs>
 <g id="figure_1">
  <g id="patch_1">
   <path d="M 0 216 
L 288 216 
L 288 0 
L 0 0 
z
" style="fill: #ffffff"/>
  </g>
  <g id="axes_1">
   <g id="patch_2">
    <path d="M 43.2 183.6 
L 273.6 183.6 
L 273.6 10.8 
L 43.2 10.8 
z
" style="fill: #ffffff"/>
   </g>
   <g id="matplotlib.axis_1">
    <g id="xtick_1">
     <g id="line2d_1">
      <path d="M 83.594805 183.6 
L 83.594805 10.8 
" clip-path="url(#p3e8f4d25f9)" style="fill: none; stroke: #b0b0b0; stroke-opacity: 0.7; stroke-width: 0.8; stroke-linecap: square"/>
     </g>
     <g id="line2d_2"/>
     <g id="text_1">
      <!-- 2 -->
      <g transform="translate(80.814336 194.257812) scale(0.1 -0.1)">
       <defs>
        <path id="ArialMT-32" d="M 3222 541 
L 3222 0 
L 194 0 
Q 188 203 259 391 
Q 375 700 629 1000 
Q 884 1300 1366 1694 
Q 2113 2306 2375 2664 
Q 2638 3022 2638 3341 
Q 2638 3675 2398 3904 
Q 2159 4134 1775 4134 
Q 1369 4134 1125 3890 
Q 881 3647 878 3216 
L 300 3275 
Q 359 3922 746 4261 
Q 1134 4600 1788 4600 
Q 2447 4600 2831 4234 
Q 3216 3869 3216 3328 
Q 3216 3053 3103 2787 
Q 2991 2522 2730 2228 
Q 2469 1934 1863 1422 
Q 1356 997 1212 845 
Q 1069 694 975 541 
L 3222 541 
z
" transform="scale(0.015625)"/>
       </defs>
       <use xlink:href="#ArialMT-32"/>
      </g>
     </g>
    </g>
    <g id="xtick_2">
     <g id="line2d_3">
      <path d="M 143.438961 183.6 
L 143.438961 10.8 
" clip-path="url(#p3e8f4d25f9)" style="fill: none; stroke: #b0b0b0; stroke-opacity: 0.7; stroke-width: 0.8; stroke-linecap: square"/>
     </g>
     <g id="line2d_4"/>
     <g id="text_2">
      <!-- 4 -->
      <g transform="translate(140.658492 194.257812) scale(0.1 -0.1)">
       <defs>
        <path id="ArialMT-34" d="M 2069 0 
L 2069 1097 
L 81 1097 
L 81 1613 
L 2172 4581 
L 2631 4581 
L 2631 1613 
L 3250 1613 
L 3250 1097 
L 2631 1097 
L 2631 0 
L 2069 0 
z
M 2069 1613 
L 2069 3678 
L 634 1613 
L 2069 1613 
z
" transform="scale(0.015625)"/>
       </defs>
       <use xlink:href="#ArialMT-34"/>
      </g>
     </g>
    </g>
    <g id="xtick_3">
     <g id="line2d_5">
      <path d="M 203.283117 183.6 
L 203.283117 10.8 
" clip-path="url(#p3e8f4d25f9)" style="fill: none; stroke: #b0b0b0; stroke-opacity: 0.7; stroke-width: 0.8; stroke-linecap: square"/>
     </g>
     <g id="line2d_6"/>
     <g id="text_3">
      <!-- 6 -->
      <g transform="translate(200.502648 194.257812) scale(0.1 -0.1)">
       <defs>
        <path id="ArialMT-36" d="M 3184 3459 
L 2625 3416 
Q 2550 3747 2413 3897 
Q 2184 4138 1850 4138 
Q 1581 4138 1378 3988 
Q 1113 3794 959 3422 
Q 806 3050 800 2363 
Q 1003 2672 1297 2822 
Q 1591 2972 1913 2972 
Q 2475 2972 2870 2558 
Q 3266 2144 3266 1488 
Q 3266 1056 3080 686 
Q 2894 316 2569 119 
Q 2244 -78 1831 -78 
Q 1128 -78 684 439 
Q 241 956 241 2144 
Q 241 3472 731 4075 
Q 1159 4600 1884 4600 
Q 2425 4600 2770 4297 
Q 3116 3994 3184 3459 
z
M 888 1484 
Q 888 1194 1011 928 
Q 1134 663 1356 523 
Q 1578 384 1822 384 
Q 2178 384 2434 671 
Q 2691 959 2691 1453 
Q 2691 1928 2437 2201 
Q 2184 2475 1800 2475 
Q 1419 2475 1153 2201 
Q 888 1928 888 1484 
z
" transform="scale(0.015625)"/>
       </defs>
       <use xlink:href="#ArialMT-36"/>
      </g>
     </g>
    </g>
    <g id="xtick_4">
     <g id="line2d_7">
      <path d="M 263.127273 183.6 
L 263.127273 10.8 
" clip-path="url(#p3e8f4d25f9)" style="fill: none; stroke: #b0b0b0; stroke-opacity: 0.7; stroke-width: 0.8; stroke-linecap: square"/>
     </g>
     <g id="line2d_8"/>
     <g id="text_4">
      <!-- 8 -->
      <g transform="translate(260.346804 194.257812) scale(0.1 -0.1)">
       <defs>
        <path id="ArialMT-38" d="M 1131 2484 
Q 781 2613 612 2850 
Q 444 3088 444 3419 
Q 444 3919 803 4259 
Q 1163 4600 1759 4600 
Q 2359 4600 2725 4251 
Q 3091 3903 3091 3403 
Q 3091 3084 2923 2848 
Q 2756 2613 2416 2484 
Q 2838 2347 3058 2040 
Q 3278 1734 3278 1309 
Q 3278 722 2862 322 
Q 2447 -78 1769 -78 
Q 1091 -78 675 323 
Q 259 725 259 1325 
Q 259 1772 486 2073 
Q 713 2375 1131 2484 
z
M 1019 3438 
Q 1019 3113 1228 2906 
Q 1438 2700 1772 2700 
Q 2097 2700 2305 2904 
Q 2513 3109 2513 3406 
Q 2513 3716 2298 3927 
Q 2084 4138 1766 4138 
Q 1444 4138 1231 3931 
Q 1019 3725 1019 3438 
z
M 838 1322 
Q 838 1081 952 856 
Q 1066 631 1291 507 
Q 1516 384 1775 384 
Q 2178 384 2440 643 
Q 2703 903 2703 1303 
Q 2703 1709 2433 1975 
Q 2163 2241 1756 2241 
Q 1359 2241 1098 1978 
Q 838 1716 838 1322 
z
" transform="scale(0.015625)"/>
       </defs>
       <use xlink:href="#ArialMT-38"/>
      </g>
     </g>
    </g>
    <g id="text_5">
     <!-- $\epsilon$ -->
     <g transform="translate(155.1 208.834688) scale(0.12 -0.12)">
      <defs>
       <path id="DejaVuSans-Oblique-3b5" d="M 1263 1888 
Q 925 1963 778 2166 
Q 669 2309 669 2503 
Q 669 3034 1175 3344 
Q 1575 3588 2188 3588 
Q 2425 3588 2684 3550 
Q 2944 3513 3234 3438 
L 3134 2916 
Q 2847 3006 2606 3047 
Q 2359 3088 2138 3088 
Q 1766 3088 1522 2944 
Q 1228 2772 1228 2522 
Q 1228 2356 1381 2241 
Q 1563 2103 1925 2103 
L 2409 2103 
L 2319 1628 
L 1856 1628 
Q 1425 1628 1172 1469 
Q 828 1253 828 916 
Q 828 703 1013 563 
Q 1244 388 1716 388 
Q 2006 388 2284 444 
Q 2563 503 2806 619 
L 2700 84 
Q 2403 -3 2131 -47 
Q 1859 -91 1609 -91 
Q 866 -91 516 194 
Q 250 413 250 781 
Q 250 1278 600 1584 
Q 859 1813 1263 1888 
z
" transform="scale(0.015625)"/>
      </defs>
      <use xlink:href="#DejaVuSans-Oblique-3b5" transform="translate(0 0.9375)"/>
     </g>
    </g>
   </g>
   <g id="matplotlib.axis_2">
    <g id="ytick_1">
     <g id="line2d_9">
      <path d="M 43.2 158.570559 
L 273.6 158.570559 
" clip-path="url(#p3e8f4d25f9)" style="fill: none; stroke: #b0b0b0; stroke-opacity: 0.7; stroke-width: 0.8; stroke-linecap: square"/>
     </g>
     <g id="line2d_10"/>
     <g id="text_6">
      <!-- $\mathdefault{10^{-2}}$ -->
      <g transform="translate(19.9 163.726809) scale(0.1 -0.1)">
       <defs>
        <path id="ArialMT-31" d="M 2384 0 
L 1822 0 
L 1822 3584 
Q 1619 3391 1289 3197 
Q 959 3003 697 2906 
L 697 3450 
Q 1169 3672 1522 3987 
Q 1875 4303 2022 4600 
L 2384 4600 
L 2384 0 
z
" transform="scale(0.015625)"/>
        <path id="ArialMT-30" d="M 266 2259 
Q 266 3072 433 3567 
Q 600 4063 929 4331 
Q 1259 4600 1759 4600 
Q 2128 4600 2406 4451 
Q 2684 4303 2865 4023 
Q 3047 3744 3150 3342 
Q 3253 2941 3253 2259 
Q 3253 1453 3087 958 
Q 2922 463 2592 192 
Q 2263 -78 1759 -78 
Q 1097 -78 719 397 
Q 266 969 266 2259 
z
M 844 2259 
Q 844 1131 1108 757 
Q 1372 384 1759 384 
Q 2147 384 2411 759 
Q 2675 1134 2675 2259 
Q 2675 3391 2411 3762 
Q 2147 4134 1753 4134 
Q 1366 4134 1134 3806 
Q 844 3388 844 2259 
z
" transform="scale(0.015625)"/>
        <path id="ArialMT-2212" d="M 3381 1997 
L 356 1997 
L 356 2522 
L 3381 2522 
L 3381 1997 
z
" transform="scale(0.015625)"/>
       </defs>
       <use xlink:href="#ArialMT-31" transform="translate(0 0.99375)"/>
       <use xlink:href="#ArialMT-30" transform="translate(55.615234 0.99375)"/>
       <use xlink:href="#ArialMT-2212" transform="translate(112.972813 70.6875) scale(0.7)"/>
       <use xlink:href="#ArialMT-32" transform="translate(153.851719 70.6875) scale(0.7)"/>
      </g>
     </g>
    </g>
    <g id="ytick_2">
     <g id="line2d_11">
      <path d="M 43.2 121.696404 
L 273.6 121.696404 
" clip-path="url(#p3e8f4d25f9)" style="fill: none; stroke: #b0b0b0; stroke-opacity: 0.7; stroke-width: 0.8; stroke-linecap: square"/>
     </g>
     <g id="line2d_12"/>
     <g id="text_7">
      <!-- $\mathdefault{10^{-1}}$ -->
      <g transform="translate(19.9 126.852654) scale(0.1 -0.1)">
       <use xlink:href="#ArialMT-31" transform="translate(0 0.99375)"/>
       <use xlink:href="#ArialMT-30" transform="translate(55.615234 0.99375)"/>
       <use xlink:href="#ArialMT-2212" transform="translate(112.972813 70.6875) scale(0.7)"/>
       <use xlink:href="#ArialMT-31" transform="translate(153.851719 70.6875) scale(0.7)"/>
      </g>
     </g>
    </g>
    <g id="ytick_3">
     <g id="line2d_13">
      <path d="M 43.2 84.822248 
L 273.6 84.822248 
" clip-path="url(#p3e8f4d25f9)" style="fill: none; stroke: #b0b0b0; stroke-opacity: 0.7; stroke-width: 0.8; stroke-linecap: square"/>
     </g>
     <g id="line2d_14"/>
     <g id="text_8">
      <!-- $\mathdefault{10^{0}}$ -->
      <g transform="translate(24 89.978498) scale(0.1 -0.1)">
       <use xlink:href="#ArialMT-31" transform="translate(0 0.99375)"/>
       <use xlink:href="#ArialMT-30" transform="translate(55.615234 0.99375)"/>
       <use xlink:href="#ArialMT-30" transform="translate(112.972813 70.6875) scale(0.7)"/>
      </g>
     </g>
    </g>
    <g id="ytick_4">
     <g id="line2d_15">
      <path d="M 43.2 47.948093 
L 273.6 47.948093 
" clip-path="url(#p3e8f4d25f9)" style="fill: none; stroke: #b0b0b0; stroke-opacity: 0.7; stroke-width: 0.8; stroke-linecap: square"/>
     </g>
     <g id="line2d_16"/>
     <g id="text_9">
      <!-- $\mathdefault{10^{1}}$ -->
      <g transform="translate(24 53.104343) scale(0.1 -0.1)">
       <use xlink:href="#ArialMT-31" transform="translate(0 0.99375)"/>
       <use xlink:href="#ArialMT-30" transform="translate(55.615234 0.99375)"/>
       <use xlink:href="#ArialMT-31" transform="translate(112.972813 70.6875) scale(0.7)"/>
      </g>
     </g>
    </g>
    <g id="ytick_5">
     <g id="line2d_17">
      <path d="M 43.2 11.073937 
L 273.6 11.073937 
" clip-path="url(#p3e8f4d25f9)" style="fill: none; stroke: #b0b0b0; stroke-opacity: 0.7; stroke-width: 0.8; stroke-linecap: square"/>
     </g>
     <g id="line2d_18"/>
     <g id="text_10">
      <!-- $\mathdefault{10^{2}}$ -->
      <g transform="translate(24 16.230187) scale(0.1 -0.1)">
       <use xlink:href="#ArialMT-31" transform="translate(0 0.99375)"/>
       <use xlink:href="#ArialMT-30" transform="translate(55.615234 0.99375)"/>
       <use xlink:href="#ArialMT-32" transform="translate(112.972813 70.6875) scale(0.7)"/>
      </g>
     </g>
    </g>
    <g id="text_11">
     <!-- Clustering Coefficient $\left| G \right|$ -->
     <g transform="translate(13.26 163.62) rotate(-90) scale(0.12 -0.12)">
      <defs>
       <path id="ArialMT-43" d="M 3763 1606 
L 4369 1453 
Q 4178 706 3683 314 
Q 3188 -78 2472 -78 
Q 1731 -78 1267 223 
Q 803 525 561 1097 
Q 319 1669 319 2325 
Q 319 3041 592 3573 
Q 866 4106 1370 4382 
Q 1875 4659 2481 4659 
Q 3169 4659 3637 4309 
Q 4106 3959 4291 3325 
L 3694 3184 
Q 3534 3684 3231 3912 
Q 2928 4141 2469 4141 
Q 1941 4141 1586 3887 
Q 1231 3634 1087 3207 
Q 944 2781 944 2328 
Q 944 1744 1114 1308 
Q 1284 872 1643 656 
Q 2003 441 2422 441 
Q 2931 441 3284 734 
Q 3638 1028 3763 1606 
z
" transform="scale(0.015625)"/>
       <path id="ArialMT-6c" d="M 409 0 
L 409 4581 
L 972 4581 
L 972 0 
L 409 0 
z
" transform="scale(0.015625)"/>
       <path id="ArialMT-75" d="M 2597 0 
L 2597 488 
Q 2209 -75 1544 -75 
Q 1250 -75 995 37 
Q 741 150 617 320 
Q 494 491 444 738 
Q 409 903 409 1263 
L 409 3319 
L 972 3319 
L 972 1478 
Q 972 1038 1006 884 
Q 1059 663 1231 536 
Q 1403 409 1656 409 
Q 1909 409 2131 539 
Q 2353 669 2445 892 
Q 2538 1116 2538 1541 
L 2538 3319 
L 3100 3319 
L 3100 0 
L 2597 0 
z
" transform="scale(0.015625)"/>
       <path id="ArialMT-73" d="M 197 991 
L 753 1078 
Q 800 744 1014 566 
Q 1228 388 1613 388 
Q 2000 388 2187 545 
Q 2375 703 2375 916 
Q 2375 1106 2209 1216 
Q 2094 1291 1634 1406 
Q 1016 1563 777 1677 
Q 538 1791 414 1992 
Q 291 2194 291 2438 
Q 291 2659 392 2848 
Q 494 3038 669 3163 
Q 800 3259 1026 3326 
Q 1253 3394 1513 3394 
Q 1903 3394 2198 3281 
Q 2494 3169 2634 2976 
Q 2775 2784 2828 2463 
L 2278 2388 
Q 2241 2644 2061 2787 
Q 1881 2931 1553 2931 
Q 1166 2931 1000 2803 
Q 834 2675 834 2503 
Q 834 2394 903 2306 
Q 972 2216 1119 2156 
Q 1203 2125 1616 2013 
Q 2213 1853 2448 1751 
Q 2684 1650 2818 1456 
Q 2953 1263 2953 975 
Q 2953 694 2789 445 
Q 2625 197 2315 61 
Q 2006 -75 1616 -75 
Q 969 -75 630 194 
Q 291 463 197 991 
z
" transform="scale(0.015625)"/>
       <path id="ArialMT-74" d="M 1650 503 
L 1731 6 
Q 1494 -44 1306 -44 
Q 1000 -44 831 53 
Q 663 150 594 308 
Q 525 466 525 972 
L 525 2881 
L 113 2881 
L 113 3319 
L 525 3319 
L 525 4141 
L 1084 4478 
L 1084 3319 
L 1650 3319 
L 1650 2881 
L 1084 2881 
L 1084 941 
Q 1084 700 1114 631 
Q 1144 563 1211 522 
Q 1278 481 1403 481 
Q 1497 481 1650 503 
z
" transform="scale(0.015625)"/>
       <path id="ArialMT-65" d="M 2694 1069 
L 3275 997 
Q 3138 488 2766 206 
Q 2394 -75 1816 -75 
Q 1088 -75 661 373 
Q 234 822 234 1631 
Q 234 2469 665 2931 
Q 1097 3394 1784 3394 
Q 2450 3394 2872 2941 
Q 3294 2488 3294 1666 
Q 3294 1616 3291 1516 
L 816 1516 
Q 847 969 1125 678 
Q 1403 388 1819 388 
Q 2128 388 2347 550 
Q 2566 713 2694 1069 
z
M 847 1978 
L 2700 1978 
Q 2663 2397 2488 2606 
Q 2219 2931 1791 2931 
Q 1403 2931 1139 2672 
Q 875 2413 847 1978 
z
" transform="scale(0.015625)"/>
       <path id="ArialMT-72" d="M 416 0 
L 416 3319 
L 922 3319 
L 922 2816 
Q 1116 3169 1280 3281 
Q 1444 3394 1641 3394 
Q 1925 3394 2219 3213 
L 2025 2691 
Q 1819 2813 1613 2813 
Q 1428 2813 1281 2702 
Q 1134 2591 1072 2394 
Q 978 2094 978 1738 
L 978 0 
L 416 0 
z
" transform="scale(0.015625)"/>
       <path id="ArialMT-69" d="M 425 3934 
L 425 4581 
L 988 4581 
L 988 3934 
L 425 3934 
z
M 425 0 
L 425 3319 
L 988 3319 
L 988 0 
L 425 0 
z
" transform="scale(0.015625)"/>
       <path id="ArialMT-6e" d="M 422 0 
L 422 3319 
L 928 3319 
L 928 2847 
Q 1294 3394 1984 3394 
Q 2284 3394 2536 3286 
Q 2788 3178 2913 3003 
Q 3038 2828 3088 2588 
Q 3119 2431 3119 2041 
L 3119 0 
L 2556 0 
L 2556 2019 
Q 2556 2363 2490 2533 
Q 2425 2703 2258 2804 
Q 2091 2906 1866 2906 
Q 1506 2906 1245 2678 
Q 984 2450 984 1813 
L 984 0 
L 422 0 
z
" transform="scale(0.015625)"/>
       <path id="ArialMT-67" d="M 319 -275 
L 866 -356 
Q 900 -609 1056 -725 
Q 1266 -881 1628 -881 
Q 2019 -881 2231 -725 
Q 2444 -569 2519 -288 
Q 2563 -116 2559 434 
Q 2191 0 1641 0 
Q 956 0 581 494 
Q 206 988 206 1678 
Q 206 2153 378 2554 
Q 550 2956 876 3175 
Q 1203 3394 1644 3394 
Q 2231 3394 2613 2919 
L 2613 3319 
L 3131 3319 
L 3131 450 
Q 3131 -325 2973 -648 
Q 2816 -972 2473 -1159 
Q 2131 -1347 1631 -1347 
Q 1038 -1347 672 -1080 
Q 306 -813 319 -275 
z
M 784 1719 
Q 784 1066 1043 766 
Q 1303 466 1694 466 
Q 2081 466 2343 764 
Q 2606 1063 2606 1700 
Q 2606 2309 2336 2618 
Q 2066 2928 1684 2928 
Q 1309 2928 1046 2623 
Q 784 2319 784 1719 
z
" transform="scale(0.015625)"/>
       <path id="ArialMT-20" transform="scale(0.015625)"/>
       <path id="ArialMT-6f" d="M 213 1659 
Q 213 2581 725 3025 
Q 1153 3394 1769 3394 
Q 2453 3394 2887 2945 
Q 3322 2497 3322 1706 
Q 3322 1066 3130 698 
Q 2938 331 2570 128 
Q 2203 -75 1769 -75 
Q 1072 -75 642 372 
Q 213 819 213 1659 
z
M 791 1659 
Q 791 1022 1069 705 
Q 1347 388 1769 388 
Q 2188 388 2466 706 
Q 2744 1025 2744 1678 
Q 2744 2294 2464 2611 
Q 2184 2928 1769 2928 
Q 1347 2928 1069 2612 
Q 791 2297 791 1659 
z
" transform="scale(0.015625)"/>
       <path id="ArialMT-66" d="M 556 0 
L 556 2881 
L 59 2881 
L 59 3319 
L 556 3319 
L 556 3672 
Q 556 4006 616 4169 
Q 697 4388 901 4523 
Q 1106 4659 1475 4659 
Q 1713 4659 2000 4603 
L 1916 4113 
Q 1741 4144 1584 4144 
Q 1328 4144 1222 4034 
Q 1116 3925 1116 3625 
L 1116 3319 
L 1763 3319 
L 1763 2881 
L 1116 2881 
L 1116 0 
L 556 0 
z
" transform="scale(0.015625)"/>
       <path id="ArialMT-63" d="M 2588 1216 
L 3141 1144 
Q 3050 572 2676 248 
Q 2303 -75 1759 -75 
Q 1078 -75 664 370 
Q 250 816 250 1647 
Q 250 2184 428 2587 
Q 606 2991 970 3192 
Q 1334 3394 1763 3394 
Q 2303 3394 2647 3120 
Q 2991 2847 3088 2344 
L 2541 2259 
Q 2463 2594 2264 2762 
Q 2066 2931 1784 2931 
Q 1359 2931 1093 2626 
Q 828 2322 828 1663 
Q 828 994 1084 691 
Q 1341 388 1753 388 
Q 2084 388 2306 591 
Q 2528 794 2588 1216 
z
" transform="scale(0.015625)"/>
       <path id="DejaVuSans-7c" d="M 1344 4891 
L 1344 -1509 
L 813 -1509 
L 813 4891 
L 1344 4891 
z
" transform="scale(0.015625)"/>
       <path id="DejaVuSans-Oblique-47" d="M 3494 697 
L 3738 1919 
L 2700 1919 
L 2797 2438 
L 4453 2438 
L 4050 384 
Q 3634 156 3143 32 
Q 2653 -91 2156 -91 
Q 1278 -91 783 396 
Q 288 884 288 1753 
Q 288 2475 589 3126 
Q 891 3778 1422 4213 
Q 1756 4484 2153 4617 
Q 2550 4750 3034 4750 
Q 3472 4750 3873 4639 
Q 4275 4528 4641 4306 
L 4513 3634 
Q 4231 3928 3853 4083 
Q 3475 4238 3047 4238 
Q 2550 4238 2172 4048 
Q 1794 3859 1497 3463 
Q 1244 3125 1098 2667 
Q 953 2209 953 1734 
Q 953 1081 1287 751 
Q 1622 422 2284 422 
Q 2616 422 2925 492 
Q 3234 563 3494 697 
z
" transform="scale(0.015625)"/>
      </defs>
      <use xlink:href="#ArialMT-43" transform="translate(0 0.421875)"/>
      <use xlink:href="#ArialMT-6c" transform="translate(72.216797 0.421875)"/>
      <use xlink:href="#ArialMT-75" transform="translate(94.433594 0.421875)"/>
      <use xlink:href="#ArialMT-73" transform="translate(150.048828 0.421875)"/>
      <use xlink:href="#ArialMT-74" transform="translate(200.048828 0.421875)"/>
      <use xlink:href="#ArialMT-65" transform="translate(227.832031 0.421875)"/>
      <use xlink:href="#ArialMT-72" transform="translate(283.447266 0.421875)"/>
      <use xlink:href="#ArialMT-69" transform="translate(316.748047 0.421875)"/>
      <use xlink:href="#ArialMT-6e" transform="translate(338.964844 0.421875)"/>
      <use xlink:href="#ArialMT-67" transform="translate(394.580078 0.421875)"/>
      <use xlink:href="#ArialMT-20" transform="translate(450.195312 0.421875)"/>
      <use xlink:href="#ArialMT-43" transform="translate(477.978516 0.421875)"/>
      <use xlink:href="#ArialMT-6f" transform="translate(550.195312 0.421875)"/>
      <use xlink:href="#ArialMT-65" transform="translate(605.810547 0.421875)"/>
      <use xlink:href="#ArialMT-66" transform="translate(661.425781 0.421875)"/>
      <use xlink:href="#ArialMT-66" transform="translate(689.208984 0.421875)"/>
      <use xlink:href="#ArialMT-69" transform="translate(716.992188 0.421875)"/>
      <use xlink:href="#ArialMT-63" transform="translate(739.208984 0.421875)"/>
      <use xlink:href="#ArialMT-69" transform="translate(789.208984 0.421875)"/>
      <use xlink:href="#ArialMT-65" transform="translate(811.425781 0.421875)"/>
      <use xlink:href="#ArialMT-6e" transform="translate(867.041016 0.421875)"/>
      <use xlink:href="#ArialMT-74" transform="translate(922.65625 0.421875)"/>
      <use xlink:href="#ArialMT-20" transform="translate(950.439453 0.421875)"/>
      <use xlink:href="#DejaVuSans-7c" transform="translate(978.222656 16.921875) scale(0.756406)"/>
      <use xlink:href="#DejaVuSans-Oblique-47" transform="translate(1003.701782 0.421875)"/>
      <use xlink:href="#DejaVuSans-7c" transform="translate(1081.192017 16.921875) scale(0.756406)"/>
     </g>
    </g>
   </g>
   <g id="line2d_19">
    <path d="M 53.672727 23.160455 
L 83.594805 23.429581 
L 113.516883 29.185229 
L 143.438961 36.135648 
L 173.361039 33.616017 
L 203.283117 34.709541 
L 233.205195 36.74396 
L 263.127273 35.063596 
" clip-path="url(#p3e8f4d25f9)" style="fill: none; stroke-dasharray: 4.44,1.92; stroke-dashoffset: 0; stroke: #1f77b4; stroke-width: 1.2"/>
    <defs>
     <path id="m9c11d22bca" d="M -2.4 2.4 
L 2.4 2.4 
L 2.4 -2.4 
L -2.4 -2.4 
z
" style="stroke: #1f77b4; stroke-linejoin: miter"/>
    </defs>
    <g clip-path="url(#p3e8f4d25f9)">
     <use xlink:href="#m9c11d22bca" x="53.672727" y="23.160455" style="fill: #1f77b4; stroke: #1f77b4; stroke-linejoin: miter"/>
     <use xlink:href="#m9c11d22bca" x="83.594805" y="23.429581" style="fill: #1f77b4; stroke: #1f77b4; stroke-linejoin: miter"/>
     <use xlink:href="#m9c11d22bca" x="113.516883" y="29.185229" style="fill: #1f77b4; stroke: #1f77b4; stroke-linejoin: miter"/>
     <use xlink:href="#m9c11d22bca" x="143.438961" y="36.135648" style="fill: #1f77b4; stroke: #1f77b4; stroke-linejoin: miter"/>
     <use xlink:href="#m9c11d22bca" x="173.361039" y="33.616017" style="fill: #1f77b4; stroke: #1f77b4; stroke-linejoin: miter"/>
     <use xlink:href="#m9c11d22bca" x="203.283117" y="34.709541" style="fill: #1f77b4; stroke: #1f77b4; stroke-linejoin: miter"/>
     <use xlink:href="#m9c11d22bca" x="233.205195" y="36.74396" style="fill: #1f77b4; stroke: #1f77b4; stroke-linejoin: miter"/>
     <use xlink:href="#m9c11d22bca" x="263.127273" y="35.063596" style="fill: #1f77b4; stroke: #1f77b4; stroke-linejoin: miter"/>
    </g>
   </g>
   <g id="line2d_20">
    <path d="M 53.672727 37.932816 
L 83.594805 39.314634 
L 113.516883 38.179149 
L 143.438961 51.238846 
L 173.361039 48.644336 
L 203.283117 47.247454 
L 233.205195 45.362493 
L 263.127273 45.300619 
" clip-path="url(#p3e8f4d25f9)" style="fill: none; stroke: #ff7f0e; stroke-width: 1.2; stroke-linecap: round"/>
    <defs>
     <path id="mc86a74f019" d="M 0 2.4 
C 0.636487 2.4 1.246992 2.147121 1.697056 1.697056 
C 2.147121 1.246992 2.4 0.636487 2.4 0 
C 2.4 -0.636487 2.147121 -1.246992 1.697056 -1.697056 
C 1.246992 -2.147121 0.636487 -2.4 0 -2.4 
C -0.636487 -2.4 -1.246992 -2.147121 -1.697056 -1.697056 
C -2.147121 -1.246992 -2.4 -0.636487 -2.4 0 
C -2.4 0.636487 -2.147121 1.246992 -1.697056 1.697056 
C -1.246992 2.147121 -0.636487 2.4 0 2.4 
z
" style="stroke: #ff7f0e"/>
    </defs>
    <g clip-path="url(#p3e8f4d25f9)">
     <use xlink:href="#mc86a74f019" x="53.672727" y="37.932816" style="fill: #ff7f0e; stroke: #ff7f0e"/>
     <use xlink:href="#mc86a74f019" x="83.594805" y="39.314634" style="fill: #ff7f0e; stroke: #ff7f0e"/>
     <use xlink:href="#mc86a74f019" x="113.516883" y="38.179149" style="fill: #ff7f0e; stroke: #ff7f0e"/>
     <use xlink:href="#mc86a74f019" x="143.438961" y="51.238846" style="fill: #ff7f0e; stroke: #ff7f0e"/>
     <use xlink:href="#mc86a74f019" x="173.361039" y="48.644336" style="fill: #ff7f0e; stroke: #ff7f0e"/>
     <use xlink:href="#mc86a74f019" x="203.283117" y="47.247454" style="fill: #ff7f0e; stroke: #ff7f0e"/>
     <use xlink:href="#mc86a74f019" x="233.205195" y="45.362493" style="fill: #ff7f0e; stroke: #ff7f0e"/>
     <use xlink:href="#mc86a74f019" x="263.127273" y="45.300619" style="fill: #ff7f0e; stroke: #ff7f0e"/>
    </g>
   </g>
   <g id="line2d_21">
    <path d="M 53.672727 106.160771 
L 83.594805 108.216616 
L 113.516883 115.673752 
L 143.438961 132.373252 
L 173.361039 175.745455 
L 203.283117 144.695933 
L 233.205195 117.065406 
L 263.127273 102.070208 
" clip-path="url(#p3e8f4d25f9)" style="fill: none; stroke-dasharray: 1.2,1.98; stroke-dashoffset: 0; stroke: #2ca02c; stroke-width: 1.2"/>
    <defs>
     <path id="m80b1c2bcc3" d="M -2.4 2.4 
L 2.4 -2.4 
M -2.4 -2.4 
L 2.4 2.4 
" style="stroke: #2ca02c"/>
    </defs>
    <g clip-path="url(#p3e8f4d25f9)">
     <use xlink:href="#m80b1c2bcc3" x="53.672727" y="106.160771" style="fill: #2ca02c; stroke: #2ca02c"/>
     <use xlink:href="#m80b1c2bcc3" x="83.594805" y="108.216616" style="fill: #2ca02c; stroke: #2ca02c"/>
     <use xlink:href="#m80b1c2bcc3" x="113.516883" y="115.673752" style="fill: #2ca02c; stroke: #2ca02c"/>
     <use xlink:href="#m80b1c2bcc3" x="143.438961" y="132.373252" style="fill: #2ca02c; stroke: #2ca02c"/>
     <use xlink:href="#m80b1c2bcc3" x="173.361039" y="175.745455" style="fill: #2ca02c; stroke: #2ca02c"/>
     <use xlink:href="#m80b1c2bcc3" x="203.283117" y="144.695933" style="fill: #2ca02c; stroke: #2ca02c"/>
     <use xlink:href="#m80b1c2bcc3" x="233.205195" y="117.065406" style="fill: #2ca02c; stroke: #2ca02c"/>
     <use xlink:href="#m80b1c2bcc3" x="263.127273" y="102.070208" style="fill: #2ca02c; stroke: #2ca02c"/>
    </g>
   </g>
   <g id="line2d_22">
    <path d="M 53.672727 22.113458 
L 83.594805 20.376627 
L 113.516883 18.654545 
L 143.438961 23.281903 
L 173.361039 23.663578 
L 203.283117 20.830402 
L 233.205195 19.813673 
L 263.127273 19.553443 
" clip-path="url(#p3e8f4d25f9)" style="fill: none; stroke-dasharray: 7.68,1.92,1.2,1.92; stroke-dashoffset: 0; stroke: #d62728; stroke-width: 1.2"/>
    <defs>
     <path id="mcddff1dd58" d="M 0 -2.4 
L -2.4 2.4 
L 2.4 2.4 
z
" style="stroke: #d62728; stroke-linejoin: miter"/>
    </defs>
    <g clip-path="url(#p3e8f4d25f9)">
     <use xlink:href="#mcddff1dd58" x="53.672727" y="22.113458" style="fill: #d62728; stroke: #d62728; stroke-linejoin: miter"/>
     <use xlink:href="#mcddff1dd58" x="83.594805" y="20.376627" style="fill: #d62728; stroke: #d62728; stroke-linejoin: miter"/>
     <use xlink:href="#mcddff1dd58" x="113.516883" y="18.654545" style="fill: #d62728; stroke: #d62728; stroke-linejoin: miter"/>
     <use xlink:href="#mcddff1dd58" x="143.438961" y="23.281903" style="fill: #d62728; stroke: #d62728; stroke-linejoin: miter"/>
     <use xlink:href="#mcddff1dd58" x="173.361039" y="23.663578" style="fill: #d62728; stroke: #d62728; stroke-linejoin: miter"/>
     <use xlink:href="#mcddff1dd58" x="203.283117" y="20.830402" style="fill: #d62728; stroke: #d62728; stroke-linejoin: miter"/>
     <use xlink:href="#mcddff1dd58" x="233.205195" y="19.813673" style="fill: #d62728; stroke: #d62728; stroke-linejoin: miter"/>
     <use xlink:href="#mcddff1dd58" x="263.127273" y="19.553443" style="fill: #d62728; stroke: #d62728; stroke-linejoin: miter"/>
    </g>
   </g>
   <g id="patch_3">
    <path d="M 43.2 183.6 
L 43.2 10.8 
" style="fill: none; stroke: #c8c8c8; stroke-width: 0.8; stroke-linejoin: miter; stroke-linecap: square"/>
   </g>
   <g id="patch_4">
    <path d="M 273.6 183.6 
L 273.6 10.8 
" style="fill: none; stroke: #c8c8c8; stroke-width: 0.8; stroke-linejoin: miter; stroke-linecap: square"/>
   </g>
   <g id="patch_5">
    <path d="M 43.2 183.6 
L 273.6 183.6 
" style="fill: none; stroke: #c8c8c8; stroke-width: 0.8; stroke-linejoin: miter; stroke-linecap: square"/>
   </g>
   <g id="patch_6">
    <path d="M 43.2 10.8 
L 273.6 10.8 
" style="fill: none; stroke: #c8c8c8; stroke-width: 0.8; stroke-linejoin: miter; stroke-linecap: square"/>
   </g>
   <g id="legend_1">
    <g id="patch_7">
     <path d="M 50.592 178.32 
L 108.4377 178.32 
Q 110.5497 178.32 110.5497 176.208 
L 110.5497 117.5142 
Q 110.5497 115.4022 108.4377 115.4022 
L 50.592 115.4022 
Q 48.48 115.4022 48.48 117.5142 
L 48.48 176.208 
Q 48.48 178.32 50.592 178.32 
z
" style="fill: #ffffff; opacity: 0.8; stroke: #cccccc; stroke-width: 0.8; stroke-linejoin: miter"/>
    </g>
    <g id="line2d_23">
     <path d="M 52.704 123.48885 
L 63.264 123.48885 
L 73.824 123.48885 
" style="fill: none; stroke-dasharray: 4.44,1.92; stroke-dashoffset: 0; stroke: #1f77b4; stroke-width: 1.2"/>
     <g>
      <use xlink:href="#m9c11d22bca" x="63.264" y="123.48885" style="fill: #1f77b4; stroke: #1f77b4; stroke-linejoin: miter"/>
     </g>
    </g>
    <g id="text_12">
     <!-- RVA -->
     <g style="fill: #262626" transform="translate(82.272 127.18485) scale(0.1056 -0.1056)">
      <defs>
       <path id="ArialMT-52" d="M 503 0 
L 503 4581 
L 2534 4581 
Q 3147 4581 3465 4457 
Q 3784 4334 3975 4021 
Q 4166 3709 4166 3331 
Q 4166 2844 3850 2509 
Q 3534 2175 2875 2084 
Q 3116 1969 3241 1856 
Q 3506 1613 3744 1247 
L 4541 0 
L 3778 0 
L 3172 953 
Q 2906 1366 2734 1584 
Q 2563 1803 2427 1890 
Q 2291 1978 2150 2013 
Q 2047 2034 1813 2034 
L 1109 2034 
L 1109 0 
L 503 0 
z
M 1109 2559 
L 2413 2559 
Q 2828 2559 3062 2645 
Q 3297 2731 3419 2920 
Q 3541 3109 3541 3331 
Q 3541 3656 3305 3865 
Q 3069 4075 2559 4075 
L 1109 4075 
L 1109 2559 
z
" transform="scale(0.015625)"/>
       <path id="ArialMT-56" d="M 1803 0 
L 28 4581 
L 684 4581 
L 1875 1253 
Q 2019 853 2116 503 
Q 2222 878 2363 1253 
L 3600 4581 
L 4219 4581 
L 2425 0 
L 1803 0 
z
" transform="scale(0.015625)"/>
       <path id="ArialMT-41" d="M -9 0 
L 1750 4581 
L 2403 4581 
L 4278 0 
L 3588 0 
L 3053 1388 
L 1138 1388 
L 634 0 
L -9 0 
z
M 1313 1881 
L 2866 1881 
L 2388 3150 
Q 2169 3728 2063 4100 
Q 1975 3659 1816 3225 
L 1313 1881 
z
" transform="scale(0.015625)"/>
      </defs>
      <use xlink:href="#ArialMT-52"/>
      <use xlink:href="#ArialMT-56" transform="translate(70.466797 0)"/>
      <use xlink:href="#ArialMT-41" transform="translate(129.791016 0)"/>
     </g>
    </g>
    <g id="line2d_24">
     <path d="M 52.704 138.4263 
L 63.264 138.4263 
L 73.824 138.4263 
" style="fill: none; stroke: #ff7f0e; stroke-width: 1.2; stroke-linecap: round"/>
     <g>
      <use xlink:href="#mc86a74f019" x="63.264" y="138.4263" style="fill: #ff7f0e; stroke: #ff7f0e"/>
     </g>
    </g>
    <g id="text_13">
     <!-- RNA -->
     <g style="fill: #262626" transform="translate(82.272 142.1223) scale(0.1056 -0.1056)">
      <defs>
       <path id="ArialMT-4e" d="M 488 0 
L 488 4581 
L 1109 4581 
L 3516 984 
L 3516 4581 
L 4097 4581 
L 4097 0 
L 3475 0 
L 1069 3600 
L 1069 0 
L 488 0 
z
" transform="scale(0.015625)"/>
      </defs>
      <use xlink:href="#ArialMT-52"/>
      <use xlink:href="#ArialMT-4e" transform="translate(72.216797 0)"/>
      <use xlink:href="#ArialMT-41" transform="translate(144.433594 0)"/>
     </g>
    </g>
    <g id="line2d_25">
     <path d="M 52.704 153.36375 
L 63.264 153.36375 
L 73.824 153.36375 
" style="fill: none; stroke-dasharray: 1.2,1.98; stroke-dashoffset: 0; stroke: #2ca02c; stroke-width: 1.2"/>
     <g>
      <use xlink:href="#m80b1c2bcc3" x="63.264" y="153.36375" style="fill: #2ca02c; stroke: #2ca02c"/>
     </g>
    </g>
    <g id="text_14">
     <!-- UA -->
     <g style="fill: #262626" transform="translate(82.272 157.05975) scale(0.1056 -0.1056)">
      <defs>
       <path id="ArialMT-55" d="M 3500 4581 
L 4106 4581 
L 4106 1934 
Q 4106 1244 3950 837 
Q 3794 431 3386 176 
Q 2978 -78 2316 -78 
Q 1672 -78 1262 144 
Q 853 366 678 786 
Q 503 1206 503 1934 
L 503 4581 
L 1109 4581 
L 1109 1938 
Q 1109 1341 1220 1058 
Q 1331 775 1601 622 
Q 1872 469 2263 469 
Q 2931 469 3215 772 
Q 3500 1075 3500 1938 
L 3500 4581 
z
" transform="scale(0.015625)"/>
      </defs>
      <use xlink:href="#ArialMT-55"/>
      <use xlink:href="#ArialMT-41" transform="translate(72.216797 0)"/>
     </g>
    </g>
    <g id="line2d_26">
     <path d="M 52.704 168.3012 
L 63.264 168.3012 
L 73.824 168.3012 
" style="fill: none; stroke-dasharray: 7.68,1.92,1.2,1.92; stroke-dashoffset: 0; stroke: #d62728; stroke-width: 1.2"/>
     <g>
      <use xlink:href="#mcddff1dd58" x="63.264" y="168.3012" style="fill: #d62728; stroke: #d62728; stroke-linejoin: miter"/>
     </g>
    </g>
    <g id="text_15">
     <!-- MGA -->
     <g style="fill: #262626" transform="translate(82.272 171.9972) scale(0.1056 -0.1056)">
      <defs>
       <path id="ArialMT-4d" d="M 475 0 
L 475 4581 
L 1388 4581 
L 2472 1338 
Q 2622 884 2691 659 
Q 2769 909 2934 1394 
L 4031 4581 
L 4847 4581 
L 4847 0 
L 4263 0 
L 4263 3834 
L 2931 0 
L 2384 0 
L 1059 3900 
L 1059 0 
L 475 0 
z
" transform="scale(0.015625)"/>
       <path id="ArialMT-47" d="M 2638 1797 
L 2638 2334 
L 4578 2338 
L 4578 638 
Q 4131 281 3656 101 
Q 3181 -78 2681 -78 
Q 2006 -78 1454 211 
Q 903 500 622 1047 
Q 341 1594 341 2269 
Q 341 2938 620 3517 
Q 900 4097 1425 4378 
Q 1950 4659 2634 4659 
Q 3131 4659 3532 4498 
Q 3934 4338 4162 4050 
Q 4391 3763 4509 3300 
L 3963 3150 
Q 3859 3500 3706 3700 
Q 3553 3900 3268 4020 
Q 2984 4141 2638 4141 
Q 2222 4141 1919 4014 
Q 1616 3888 1430 3681 
Q 1244 3475 1141 3228 
Q 966 2803 966 2306 
Q 966 1694 1177 1281 
Q 1388 869 1791 669 
Q 2194 469 2647 469 
Q 3041 469 3416 620 
Q 3791 772 3984 944 
L 3984 1797 
L 2638 1797 
z
" transform="scale(0.015625)"/>
      </defs>
      <use xlink:href="#ArialMT-4d"/>
      <use xlink:href="#ArialMT-47" transform="translate(83.300781 0)"/>
      <use xlink:href="#ArialMT-41" transform="translate(161.083984 0)"/>
     </g>
    </g>
   </g>
  </g>
 </g>
 <defs>
  <clipPath id="p3e8f4d25f9">
   <rect x="43.2" y="10.8" width="230.4" height="172.8"/>
  </clipPath>
 </defs>
</svg>
